<svg xmlns="http://www.w3.org/2000/svg" viewBox="0 0 1007.88 822.2"><defs><style>.cls-1,.cls-3{fill:#f7931e;}.cls-1{opacity:0.6;}.cls-2{fill:#1b1464;}.cls-4{fill:#da6709;}.cls-5{fill:#fff;}.cls-6{fill:#8d6f81;}.cls-7{fill:#ba8587;}.cls-8{fill:#5f5570;}.cls-9{fill:#ffc2cf;}.cls-10{fill:#e9eaf2;}.cls-11{fill:#c48087;}.cls-12{fill:#ffcbd7;}.cls-13{fill:#ffc4d0;}.cls-14{fill:#8e6f7f;}.cls-15{fill:#e6e6e6;stroke:#ccc;stroke-miterlimit:10;stroke-width:0.25px;}.cls-16{fill:#bd868b;}.cls-17{fill:none;}.cls-18{fill:#d1d2da;}</style></defs><title>Mobile</title><g id="Layer_2" data-name="Layer 2"><g id="Layer_1-2" data-name="Layer 1"><path class="cls-1" d="M143.2,652.11c67.74,6.56,551.7,50.74,796.58-1.16a88.37,88.37,0,0,0,58.46-42.08c18.64-32.45,19.64-83.18-84.83-138.62-4.43-2.35-9-4.48-13.59-6.47-20.63-8.89-102.06-54.37,16.8-181.24a116.48,116.48,0,0,0,16-21.39c24.64-42.74,88-176.29-52.93-219.66-45.87-14.12-95.52-7.73-136.83,16.69A400.71,400.71,0,0,0,706.5,82.5a88.08,88.08,0,0,1-28.07,14.11c-41.26,12-150.16,35.75-241.79-15.6,0,0-180.43-94.12-281.23-79.46,0,0-132.86,12.08-96.84,175.32a89.55,89.55,0,0,0,16.56,35.51c23.69,30.63,71.41,118.16-37.8,233,0,0-127.78,140.47,89.49,203.54A90.27,90.27,0,0,0,143.2,652.11Z"/><ellipse class="cls-1" cx="519.17" cy="777.81" rx="293.45" ry="44.39"/><rect class="cls-2" x="362.94" y="136.26" width="294.84" height="605.34" rx="43.47"/><path class="cls-3" d="M639.91,703.62V173.34s2.52-13.32-18-20.52H583.39s1.44,19.8-15.48,23.76H450.55s-15.12-2.52-15.12-23.76H399.79s-16.2,4.68-19.08,19.44v534s2.88,17.34,19.44,18.78h220s18-2.88,19.9-17.82Z"/><rect class="cls-4" x="406.68" y="209.97" width="207.36" height="438.48"/><rect class="cls-5" x="486.31" y="155.44" width="40.56" height="7.24" rx="3.12"/><circle class="cls-5" cx="539.56" cy="159.06" r="4.48"/><rect class="cls-2" x="613.21" y="297.19" width="81.93" height="12.06" rx="4.95" transform="translate(957.4 -350.96) rotate(90)"/><rect class="cls-2" x="346.83" y="231.57" width="37.61" height="12.06" rx="4.95" transform="translate(603.24 -128.04) rotate(90)"/><rect class="cls-2" x="338.92" y="305.01" width="53.81" height="12.06" rx="4.95" transform="translate(676.86 -54.78) rotate(90)"/><rect class="cls-2" x="338.92" y="379.53" width="53.81" height="12.06" rx="4.95" transform="translate(751.38 19.74) rotate(90)"/><path class="cls-6" d="M582.68,760.6l.67-5.38,21.26-3.9h1.07l-.53,8.34A35.49,35.49,0,0,1,582.68,760.6Z"/><path class="cls-7" d="M605.56,758.74a50.48,50.48,0,0,1,9.89,20.78s13.72,10.49,3.63,24.21c0,0-4.84,5.25-21.79-1.61L586.39,792s-7.8,1.61-9.68-6.19l.8-23.13s2.29-5,5.79-4C583.3,758.74,595,762.17,605.56,758.74Z"/><path class="cls-6" d="M615.77,784.35s-6.45,3.83-10.09,2.82A22.44,22.44,0,0,1,615.77,784.35Z"/><path class="cls-8" d="M434.92,590.14s-21.53,5.92-23.41,25.29l-3,134.78s20.38,5.85,31.28,5.45L447,719.94l4-75.86,53.87-.61,5.45-4a2.34,2.34,0,0,1,2.62.2l5,3.43,49.44,2.22,5,73.64,7.27,37.74s25.42-2.43,30.67-5l-1.62-135.39s-6.86-20.38-21.59-22.8l-17-6-24,2s-60.73,1.21-76.27-2l-29.86,1.21Z"/><path class="cls-6" d="M438,760.6l-.68-5.38-21.25-3.9H415l.54,8.34A35.47,35.47,0,0,0,438,760.6Z"/><path class="cls-7" d="M415.16,759a50.34,50.34,0,0,0-9.89,20.78s-13.72,10.49-3.63,24.21c0,0,4.84,5.25,21.79-1.61l10.9-10.09s7.8,1.61,9.68-6.19L443.2,763s-2.28-5-5.78-4C437.42,759,425.72,762.44,415.16,759Z"/><path class="cls-6" d="M405,783.34s6.45,3.83,10.08,2.82A22.37,22.37,0,0,0,405,783.34Z"/><path class="cls-9" d="M522.35,621.91s4.84.27,14.39-6c0,0,15.34-2.83,17-4.44l-3.63-11.3-3.36-2.82h-5L536.2,600s-23.67-1.21-32.15,5.65c0,0-3.49,3.22-2,4.84l4.7,8.2s8.34,2.7,8.75,3.23S522.35,621.91,522.35,621.91Z"/><path class="cls-9" d="M502.67,637.17s15.54.94,12.18-17.62c0,0-3.63-8.75-17.89-12.92l-11.16-3.76h-6.33l-5.65,2.55-2,3.36-.59,4.31,6.59,5.51S493.73,637.3,502.67,637.17Z"/><path class="cls-10" d="M492,454.12s-32.15,9-41.43,22.06c0,0-13.05,18.42-21.12,64.43L426,579.35s0,2.42,2.15,6.19c0,0,6.46,12.1,28.79,25.28l18.83,14.26s1.35-19.91,16.28-21l-19.51-14,71.83,2.42,18-17.22L560,545.18l6.18,10,1.08,19.63-5.46.24-1.55,2.37-26,20.53a27.27,27.27,0,0,1,13.72,23.2s8.07-12.71,33.49-21.18c0,0,14.33-7.67,16.75-17.76,0,0-2.22-75.46-5.45-86.76,0,0-2.62-30.87-54.88-37.93Z"/><path class="cls-11" d="M521.88,591l-8.38,10.64c-6.29,1.76-7.4,2.57-8.55,3.33l-6.48-9.13,10.29-91.6h12.11Z"/><polygon class="cls-12" points="514.63 486.53 489.88 454.59 489.88 449.94 534.26 449.94 534.26 455.6 515.7 486.53 514.63 486.53"/><circle class="cls-13" cx="511.25" cy="427.68" r="33.33"/><path class="cls-14" d="M551.68,414.3s1.89-10.23-2.42-14.53c0,0,4.85-22.33-18-17.76,0,0-8.34,2.42-18.83-7.26,0,0-12.65-9.15-19.37,9.15,0,0-19.1,1.88-18,4.3,0,0,1.88,18.56-2.69,21.52,0,0-5.11-1.34,1.35,22.33,0,0,5.38.81,17.21-16.41,0,0,12.75-2.15,20.37,4,0,0,5.19,1.88,11.11-4.85,0,0,5.65-5.11,13.72,8.07C536.08,422.9,547.38,425.06,551.68,414.3Z"/><path class="cls-15" d="M515.58,486.87l-25.66-32.44s-9.12,3.2-13.8,5.47c0,0,12.59,34.12,16.86,37.51C493,497.41,514.54,489.59,515.58,486.87Z"/><path class="cls-15" d="M515.44,487l18.82-31.39s11.17,1.85,13.69,4.17c0,0-8.23,28.39-14.63,36.73C533.32,496.49,516.87,489.07,515.44,487Z"/><path class="cls-16" d="M518.4,504.75h-9.49s-4.44-4.64-1.81-12.91c0,0,4.44-2.43,6.86-2.43,0,0,7.06-.8,10.89,4.44C524.85,493.85,525.86,504.75,518.4,504.75Z"/><path class="cls-17" d="M504.25,605.58a12.52,12.52,0,0,1,6.85-1.94"/><path class="cls-18" d="M473.59,523.28l2-10.69-8.68.81S473.79,519.45,473.59,523.28Z"/><path class="cls-18" d="M465.15,570.93s0-.43-.07-1.21c-.29-5.28-1.48-26.43-2.36-33.29C462.72,536.43,458.49,556,465.15,570.93Z"/><path class="cls-18" d="M459.33,581.19s4.64-1.42,0-3.63c0,0-25.62-2.43-25.62-1.22C433.71,576.34,455.9,581.19,459.33,581.19Z"/></g></g></svg>