<svg id="Layer_1" data-name="Layer 1" xmlns="http://www.w3.org/2000/svg" viewBox="0 0 1007.88 839.6"><defs><style>.cls-1{fill:#fff;}.cls-2,.cls-4{fill:#f7931e;}.cls-2{opacity:0.6;}.cls-3{fill:#1b1464;}.cls-5{fill:#da6709;}.cls-6{fill:#8d6f81;}.cls-7{fill:#ba8587;}.cls-8{fill:#5f5570;}.cls-9{fill:#ffc2cf;}.cls-10{fill:#e9eaf2;}.cls-11{fill:#c48087;}.cls-12{fill:#ffcbd7;}.cls-13{fill:#ffc4d0;}.cls-14{fill:#8e6f7f;}.cls-15{fill:#e6e6e6;stroke:#ccc;stroke-miterlimit:10;stroke-width:0.25px;}.cls-16{fill:#bd868b;}.cls-17{fill:none;}.cls-18{fill:#d1d2da;}</style></defs><title>Mobile2</title><rect class="cls-1" width="1007.88" height="839.6"/><path class="cls-2" d="M147.54,652.5c67.74,6.56,551.7,50.74,796.59-1.15a88.41,88.41,0,0,0,58.45-42.08c18.64-32.46,19.64-83.19-84.83-138.63-4.43-2.35-9-4.48-13.59-6.46C883.53,455.29,802.1,409.8,921,282.94a116,116,0,0,0,15.95-21.39c24.64-42.75,88-176.3-52.93-219.67-45.87-14.11-95.52-7.73-136.83,16.7a400.46,400.46,0,0,0-36.31,24.31A88,88,0,0,1,682.77,97c-41.26,12-150.16,35.75-241.79-15.59,0,0-180.43-94.12-281.23-79.46,0,0-132.86,12.07-96.84,175.32a89.45,89.45,0,0,0,16.56,35.5c23.69,30.64,71.41,118.17-37.8,233.05,0,0-127.78,140.46,89.49,203.54A89.4,89.4,0,0,0,147.54,652.5Z" transform="translate(-4.34 -0.4)"/><ellipse class="cls-2" cx="515.89" cy="788.98" rx="293.45" ry="44.39"/><rect class="cls-3" x="359.66" y="147.44" width="294.84" height="605.34" rx="43.47"/><path class="cls-4" d="M641,715.19V184.91s2.52-13.32-18-20.52H584.45s1.44,19.8-15.48,23.76H451.61s-15.12-2.52-15.12-23.76H400.85s-16.2,4.68-19.08,19.44v534s2.88,17.34,19.44,18.78h220s18-2.88,19.9-17.82Z" transform="translate(-4.34 -0.4)"/><rect class="cls-5" x="403.4" y="221.15" width="207.36" height="438.48"/><rect class="cls-1" x="483.03" y="166.62" width="40.56" height="7.24" rx="3.12"/><circle class="cls-1" cx="536.28" cy="170.24" r="4.48"/><rect class="cls-3" x="614.27" y="308.76" width="81.93" height="12.06" rx="4.95" transform="translate(965.68 -340.85) rotate(90)"/><rect class="cls-3" x="347.89" y="243.14" width="37.61" height="12.06" rx="4.95" transform="translate(611.52 -117.93) rotate(90)"/><rect class="cls-3" x="339.97" y="316.58" width="53.81" height="12.06" rx="4.95" transform="translate(685.15 -44.66) rotate(90)"/><rect class="cls-3" x="339.97" y="391.1" width="53.81" height="12.06" rx="4.95" transform="translate(759.67 29.86) rotate(90)"/><path class="cls-6" d="M583.74,772.18l.67-5.38,21.26-3.91h1.07l-.54,8.34A35.49,35.49,0,0,1,583.74,772.18Z" transform="translate(-4.34 -0.4)"/><path class="cls-7" d="M606.62,770.31a50.47,50.47,0,0,1,9.88,20.78s13.72,10.49,3.64,24.21c0,0-4.85,5.25-21.79-1.61l-10.9-10.09s-7.8,1.62-9.69-6.19l.81-23.13s2.29-5,5.79-4C584.36,770.31,596.06,773.74,606.62,770.31Z" transform="translate(-4.34 -0.4)"/><path class="cls-6" d="M616.83,795.92s-6.46,3.83-10.09,2.82A22.44,22.44,0,0,1,616.83,795.92Z" transform="translate(-4.34 -0.4)"/><path class="cls-8" d="M436,601.71s-21.52,5.92-23.4,25.29l-3,134.78s20.38,5.85,31.28,5.45l7.26-35.72,4-75.86L506,655l5.45-4a2.34,2.34,0,0,1,2.62.2l5,3.43,49.44,2.22,5,73.64,7.27,37.74s25.42-2.43,30.66-5L609.9,627.8S603,607.42,588.31,605l-16.95-6-24,2s-60.73,1.21-76.27-2l-29.86,1.21Z" transform="translate(-4.34 -0.4)"/><path class="cls-6" d="M439.09,772.18l-.67-5.38-21.25-3.91h-1.08l.54,8.34A35.49,35.49,0,0,0,439.09,772.18Z" transform="translate(-4.34 -0.4)"/><path class="cls-7" d="M416.22,770.58a50.34,50.34,0,0,0-9.89,20.78s-13.72,10.49-3.63,24.21c0,0,4.84,5.25,21.79-1.61l10.9-10.09s7.8,1.61,9.68-6.19l-.81-23.13s-2.28-5-5.78-4C438.48,770.58,426.78,774,416.22,770.58Z" transform="translate(-4.34 -0.4)"/><path class="cls-6" d="M406,794.91s6.46,3.83,10.09,2.82A22.39,22.39,0,0,0,406,794.91Z" transform="translate(-4.34 -0.4)"/><path class="cls-9" d="M523.41,633.48s4.84.27,14.39-6.05c0,0,15.33-2.83,17-4.44l-3.63-11.3-3.37-2.82h-5l-5.52,2.69s-23.67-1.21-32.15,5.65c0,0-3.49,3.23-2,4.84l4.7,8.2s8.34,2.7,8.75,3.23S523.41,633.48,523.41,633.48Z" transform="translate(-4.34 -0.4)"/><path class="cls-9" d="M503.73,648.74s15.54.94,12.18-17.62c0,0-3.63-8.75-17.89-12.92l-11.17-3.76h-6.32L474.88,617l-2,3.37-.59,4.3,6.59,5.52S494.79,648.87,503.73,648.74Z" transform="translate(-4.34 -0.4)"/><path class="cls-10" d="M493.09,465.69s-32.15,9-41.43,22.06c0,0-13.05,18.42-21.12,64.43L427,590.92s0,2.42,2.15,6.19c0,0,6.46,12.1,28.79,25.28l18.83,14.26s1.35-19.9,16.28-21l-19.51-14,71.83,2.42,18-17.22L561,556.75l6.18,10,1.08,19.64-5.46.23L561.27,589l-26,20.53A27.27,27.27,0,0,1,549,632.69s8.07-12.72,33.49-21.19c0,0,14.33-7.67,16.75-17.76,0,0-2.22-75.46-5.45-86.76,0,0-2.62-30.87-54.88-37.93Z" transform="translate(-4.34 -0.4)"/><path class="cls-11" d="M522.94,602.59l-8.38,10.64c-6.29,1.76-7.4,2.57-8.55,3.33l-6.48-9.12,10.29-91.61h12.11Z" transform="translate(-4.34 -0.4)"/><polygon class="cls-12" points="511.34 497.71 486.59 465.76 486.59 461.12 530.98 461.12 530.98 466.77 512.42 497.71 511.34 497.71"/><circle class="cls-13" cx="507.97" cy="438.86" r="33.33"/><path class="cls-14" d="M552.74,425.87s1.89-10.23-2.42-14.53c0,0,4.84-22.33-18-17.76,0,0-8.34,2.42-18.83-7.26,0,0-12.65-9.15-19.37,9.15,0,0-19.11,1.88-18,4.3,0,0,1.88,18.56-2.69,21.52,0,0-5.11-1.34,1.34,22.33,0,0,5.39.81,17.22-16.41,0,0,12.75-2.15,20.37,4,0,0,5.19,1.88,11.11-4.85,0,0,5.65-5.11,13.72,8.08C537.14,434.48,548.44,436.63,552.74,425.87Z" transform="translate(-4.34 -0.4)"/><path class="cls-15" d="M516.64,498.44,491,466s-9.12,3.2-13.8,5.47c0,0,12.59,34.12,16.86,37.51C494,509,515.6,501.16,516.64,498.44Z" transform="translate(-4.34 -0.4)"/><path class="cls-15" d="M516.5,498.55l18.82-31.38S546.49,469,549,471.34c0,0-8.23,28.38-14.63,36.72C534.38,508.06,517.93,500.64,516.5,498.55Z" transform="translate(-4.34 -0.4)"/><path class="cls-16" d="M519.45,516.32H510s-4.44-4.64-1.81-12.91c0,0,4.43-2.43,6.86-2.43,0,0,7.06-.8,10.89,4.44C525.91,505.42,526.92,516.32,519.45,516.32Z" transform="translate(-4.34 -0.4)"/><path class="cls-17" d="M505.3,617.15a12.58,12.58,0,0,1,6.85-1.94" transform="translate(-4.34 -0.4)"/><path class="cls-18" d="M474.65,534.86l2-10.7L468,525S474.85,531,474.65,534.86Z" transform="translate(-4.34 -0.4)"/><path class="cls-18" d="M466.2,582.5s0-.43-.06-1.21c-.29-5.28-1.48-26.43-2.36-33.29C463.78,548,459.55,567.57,466.2,582.5Z" transform="translate(-4.34 -0.4)"/><path class="cls-18" d="M460.39,592.76s4.64-1.41,0-3.63c0,0-25.62-2.43-25.62-1.21C434.77,587.92,457,592.76,460.39,592.76Z" transform="translate(-4.34 -0.4)"/></svg>